<svg xmlns="http://www.w3.org/2000/svg" version="1.1" xmlns:xlink="http://www.w3.org/1999/xlink" xmlns:svgjs="http://svgjs.dev/svgjs" width="1500" height="1500" viewBox="0 0 1500 1500"><rect width="1500" height="1500" fill="#1d366f"></rect><g transform="matrix(0.6666666666666666,0,0,0.6666666666666666,247.58811125892737,272.31874468085124)"><svg viewBox="0 0 148 141" data-background-color="#1d366f" preserveAspectRatio="xMidYMid meet" height="1429" width="1500" xmlns="http://www.w3.org/2000/svg" xmlns:xlink="http://www.w3.org/1999/xlink"><g id="tight-bounds" transform="matrix(1,0,0,1,0.3569595336787472,0.19949999999997203)"><svg viewBox="0 0 147.2860809326425 140.60052000000002" height="140.60052000000002" width="147.2860809326425"><g><svg viewBox="0 0 147.2860809326425 140.60052000000002" height="140.60052000000002" width="147.2860809326425"><g><svg viewBox="0 0 147.2860809326425 140.60052000000002" height="140.60052000000002" width="147.2860809326425"><g><path d="M0 140.601v-140.601h147.286v140.601z" fill="#ffffff" stroke="transparent" stroke-width="0" rx="0%" data-fill-palette-color="tertiary"></path><path d="M3.283 137.317v-134.034h140.72v134.034z" fill="#1d366f" stroke="transparent" stroke-width="0" rx="0%" data-fill-palette-color="quaternary"></path><path d="M9.85 130.751v-120.901h127.586v120.901z" fill="#ffffff" stroke="transparent" stroke-width="0" data-fill-palette-color="tertiary"></path></g><g transform="matrix(1,0,0,1,19.69974,19.69974)" id="textblocktransform"><svg viewBox="0 0 107.88660093264251 101.20104" height="101.20104" width="107.88660093264251" id="textblock"><g><svg viewBox="0 0 107.88660093264251 101.20104" height="101.20104" width="107.88660093264251"><g transform="matrix(1,0,0,1,0,0)"><svg width="107.88660093264251" viewBox="1.55 -38.05 41.150000000000006 38.599999999999994" height="101.20104" data-palette-color="#1d366f"><path d="M7.95 0.4L7.95 0.4Q5 0.4 3.28-1.73 1.55-3.85 1.55-6.6 1.55-9.35 3.43-11.53 5.3-13.7 7.9-13.7L7.9-13.7Q9-13.7 9.73-13.18 10.45-12.65 10.45-11.65L10.45-11.65Q10.45-9.8 8.05-9.8L8.05-9.8Q6.95-9.8 6.15-8.88 5.35-7.95 5.35-6.58 5.35-5.2 6.1-4.33 6.85-3.45 8.2-3.45L8.2-3.45Q12.85-3.45 12.85-17.85L12.85-17.85Q12.85-21.8 12.05-28.2 11.25-34.6 11.25-35.68 11.25-36.75 11.95-37.4 12.65-38.05 13.6-38.05L13.6-38.05Q15-38.05 15.85-36.3L15.85-36.3Q18.55-31.05 23.55-22.25 28.55-13.45 32.2-7.65L32.2-7.65Q32-7.65 31.73-14.63 31.45-21.6 31.45-23.8L31.45-23.8Q31.45-29.35 32.55-33.25L32.55-33.25Q33.2-35.5 34.68-36.77 36.15-38.05 38.08-38.05 40-38.05 41.35-37.02 42.7-36 42.7-34.65 42.7-33.3 41.55-33.3L41.55-33.3Q41.2-33.3 40.1-33.75 39-34.2 38.15-34.2L38.15-34.2Q35-34.2 35-19.75L35-19.75Q35-16.35 35.55-9.35 36.1-2.35 36.1-1.55 36.1-0.75 35.43-0.1 34.75 0.55 33.85 0.55L33.85 0.55Q32.5 0.55 31.5-1.2L31.5-1.2Q29-5.65 25.8-11.15L25.8-11.15 19.45-22.5Q16.7-27.6 15.65-29.2L15.65-29.2Q16.35-22.6 16.35-16.65L16.35-16.65Q16.35 0.4 7.95 0.4Z" opacity="1" transform="matrix(1,0,0,1,0,0)" fill="#1d366f" class="wordmark-text-0" data-fill-palette-color="quaternary" id="text-0"></path></svg></g></svg></g></svg></g></svg></g><g></g></svg></g><defs></defs></svg><rect width="147.2860809326425" height="140.60052000000002" fill="none" stroke="none" visibility="hidden"></rect></g></svg></g></svg>